<?xml version="1.0" encoding="UTF-8"?>
<svg width="1200pt" height="1200pt" version="1.1" viewBox="0 0 1200 1200" xmlns="http://www.w3.org/2000/svg">
 <style>
   path {
     fill: black;
   }
   @media (prefers-color-scheme: dark) {
     path {
       fill: white;
     }
   }
 </style>
 <g>
  <path d="m1104.8 0s-306.21 157.24-401.38 455.17c-99.309 302.07-388.96 442.76-434.48 475.86-41.379 37.242-173.79 219.31-173.79 219.31l111.72-215.17s-8.2773 41.379-8.2773 49.656c33.102-66.207 198.62-484.14 571.04-806.9-202.76 111.72-459.31 492.41-546.21 720-57.93-446.9 446.9-918.62 881.38-897.93z" fill-rule="evenodd"/>
  <path d="m455.17 1146.2c0 8.2773-8.2773 16.551-28.965 16.551-12.414 4.1367-66.207 0-86.898 4.1367-12.414 4.1367-12.414 8.2773 4.1367 12.414 124.14 20.691 364.14 0 500.69-8.2773-74.484 20.691-434.48 45.516-513.1 16.551-12.414-4.1367-28.965-16.551-8.2773-28.965 12.414-4.1367 120-4.1367 120-12.414-4.1367-20.691-281.38 4.1367-339.31 4.1367 124.14-16.551 351.72-37.242 351.72-4.1367z"/>
 </g>
</svg>
